HIERARCHY
ROOT Hips
{
    OFFSET   0.000000   0.000000   0.000000
    CHANNELS 6 Xposition Yposition Zposition Zrotation Xrotation Yrotation
    JOINT Chest
    {
        OFFSET   0.000000   8.007230   0.000000
        CHANNELS 3 Zrotation Xrotation Yrotation
        JOINT Chest2
        {
            OFFSET   0.000000  22.077100   0.000000
            CHANNELS 3 Zrotation Xrotation Yrotation
            JOINT Neck
            {
                OFFSET   0.000000  23.254700   0.000000
                CHANNELS 3 Zrotation Xrotation Yrotation
                JOINT Head
                {
                    OFFSET   0.000010  14.370000   1.956610
                    CHANNELS 3 Zrotation Xrotation Yrotation
                    End Site
                    {
                        OFFSET   0.000000  19.566000   0.000000
                    }
                }
            }
            JOINT LeftCollar
            {
                OFFSET   3.911900  19.017000  -0.467063
                CHANNELS 3 Zrotation Xrotation Yrotation
                JOINT LeftShoulder
                {
                    OFFSET  10.383700   0.000000   0.000000
                    CHANNELS 3 Zrotation Xrotation Yrotation
                    JOINT LeftElbow
                    {
                        OFFSET  26.662100   0.001671   0.000522
                        CHANNELS 3 Zrotation Xrotation Yrotation
                        JOINT LeftWrist
                        {
                            OFFSET  28.869000   0.000037  -0.000114
                            CHANNELS 3 Zrotation Xrotation Yrotation
                            JOINT LeftFinger0
                            {
                                OFFSET   2.044650  -2.323450   3.252850
                                CHANNELS 3 Zrotation Xrotation Yrotation
                                JOINT LeftFinger01
                                {
                                    OFFSET   3.088140   0.000000   0.000000
                                    CHANNELS 3 Zrotation Xrotation Yrotation
                                    JOINT LeftFinger02
                                    {
                                        OFFSET   2.639460   0.000000   0.000000
                                        CHANNELS 3 Zrotation Xrotation Yrotation
                                        End Site
                                        {
                                            OFFSET   2.582190   0.000000   0.000000
                                        }
                                    }
                                }
                            }
                            JOINT LeftFinger1
                            {
                                OFFSET   8.364480   0.000000   3.252850
                                CHANNELS 3 Zrotation Xrotation Yrotation
                                JOINT LeftFinger11
                                {
                                    OFFSET   4.646930   0.000000   0.000000
                                    CHANNELS 3 Zrotation Xrotation Yrotation
                                    JOINT LeftFinger12
                                    {
                                        OFFSET   2.323470   0.000000   0.000000
                                        CHANNELS 3 Zrotation Xrotation Yrotation
                                        End Site
                                        {
                                            OFFSET   2.273050   0.000000   0.000000
                                        }
                                    }
                                }
                            }
                            JOINT LeftFinger2
                            {
                                OFFSET   8.364490   0.000016   1.078090
                                CHANNELS 3 Zrotation Xrotation Yrotation
                                JOINT LeftFinger21
                                {
                                    OFFSET   5.111620   0.000000   0.000000
                                    CHANNELS 3 Zrotation Xrotation Yrotation
                                    JOINT LeftFinger22
                                    {
                                        OFFSET   2.788150   0.000013   0.000000
                                        CHANNELS 3 Zrotation Xrotation Yrotation
                                        End Site
                                        {
                                            OFFSET   2.727660   0.000000   0.000000
                                        }
                                    }
                                }
                            }
                            JOINT LeftFinger3
                            {
                                OFFSET   7.899780   0.000016  -1.078090
                                CHANNELS 3 Zrotation Xrotation Yrotation
                                JOINT LeftFinger31
                                {
                                    OFFSET   4.646930   0.000000   0.000000
                                    CHANNELS 3 Zrotation Xrotation Yrotation
                                    JOINT LeftFinger32
                                    {
                                        OFFSET   2.323470   0.000000   0.000000
                                        CHANNELS 3 Zrotation Xrotation Yrotation
                                        End Site
                                        {
                                            OFFSET   2.273050   0.000000   0.000000
                                        }
                                    }
                                }
                            }
                            JOINT LeftFinger4
                            {
                                OFFSET   7.435080   0.000000  -3.252850
                                CHANNELS 3 Zrotation Xrotation Yrotation
                                JOINT LeftFinger41
                                {
                                    OFFSET   3.717550   0.000000   0.000000
                                    CHANNELS 3 Zrotation Xrotation Yrotation
                                    JOINT LeftFinger42
                                    {
                                        OFFSET   1.858760   0.000000   0.000000
                                        CHANNELS 3 Zrotation Xrotation Yrotation
                                        End Site
                                        {
                                            OFFSET   1.818440   0.000000   0.000000
                                        }
                                    }
                                }
                            }
                        }
                    }
                }
            }
            JOINT RightCollar
            {
                OFFSET  -3.911900  19.017000  -0.467064
                CHANNELS 3 Zrotation Xrotation Yrotation
                JOINT RightShoulder
                {
                    OFFSET -10.383700   0.000000   0.000000
                    CHANNELS 3 Zrotation Xrotation Yrotation
                    JOINT RightElbow
                    {
                        OFFSET -26.662100   0.001633   0.000260
                        CHANNELS 3 Zrotation Xrotation Yrotation
                        JOINT RightWrist
                        {
                            OFFSET -28.869000  -0.000045  -0.000080
                            CHANNELS 3 Zrotation Xrotation Yrotation
                            JOINT RightFinger0
                            {
                                OFFSET  -2.044660  -2.323490   3.252850
                                CHANNELS 3 Zrotation Xrotation Yrotation
                                JOINT RightFinger01
                                {
                                    OFFSET  -3.088140   0.000000   0.000000
                                    CHANNELS 3 Zrotation Xrotation Yrotation
                                    JOINT RightFinger02
                                    {
                                        OFFSET  -2.639450   0.000000   0.000000
                                        CHANNELS 3 Zrotation Xrotation Yrotation
                                        End Site
                                        {
                                            OFFSET  -2.582190   0.000000   0.000000
                                        }
                                    }
                                }
                            }
                            JOINT RightFinger1
                            {
                                OFFSET  -8.364480   0.000000   3.252850
                                CHANNELS 3 Zrotation Xrotation Yrotation
                                JOINT RightFinger11
                                {
                                    OFFSET  -4.646920   0.000000   0.000000
                                    CHANNELS 3 Zrotation Xrotation Yrotation
                                    JOINT RightFinger12
                                    {
                                        OFFSET  -2.323470   0.000000   0.000000
                                        CHANNELS 3 Zrotation Xrotation Yrotation
                                        End Site
                                        {
                                            OFFSET  -2.273050   0.000000   0.000000
                                        }
                                    }
                                }
                            }
                            JOINT RightFinger2
                            {
                                OFFSET  -8.364480   0.000000   1.078090
                                CHANNELS 3 Zrotation Xrotation Yrotation
                                JOINT RightFinger21
                                {
                                    OFFSET  -5.111610   0.000000   0.000000
                                    CHANNELS 3 Zrotation Xrotation Yrotation
                                    JOINT RightFinger22
                                    {
                                        OFFSET  -2.788160   0.000000   0.000000
                                        CHANNELS 3 Zrotation Xrotation Yrotation
                                        End Site
                                        {
                                            OFFSET  -2.727660   0.000000   0.000000
                                        }
                                    }
                                }
                            }
                            JOINT RightFinger3
                            {
                                OFFSET  -7.899780   0.000000  -1.078090
                                CHANNELS 3 Zrotation Xrotation Yrotation
                                JOINT RightFinger31
                                {
                                    OFFSET  -4.646930   0.000000   0.000000
                                    CHANNELS 3 Zrotation Xrotation Yrotation
                                    JOINT RightFinger32
                                    {
                                        OFFSET  -2.323470   0.000000   0.000000
                                        CHANNELS 3 Zrotation Xrotation Yrotation
                                        End Site
                                        {
                                            OFFSET  -2.273050   0.000000   0.000000
                                        }
                                    }
                                }
                            }
                            JOINT RightFinger4
                            {
                                OFFSET  -7.435090   0.000000  -3.252850
                                CHANNELS 3 Zrotation Xrotation Yrotation
                                JOINT RightFinger41
                                {
                                    OFFSET  -3.717550   0.000000   0.000000
                                    CHANNELS 3 Zrotation Xrotation Yrotation
                                    JOINT RightFinger42
                                    {
                                        OFFSET  -1.858760   0.000000   0.000000
                                        CHANNELS 3 Zrotation Xrotation Yrotation
                                        End Site
                                        {
                                            OFFSET  -1.818440   0.000000   0.000000
                                        }
                                    }
                                }
                            }
                        }
                    }
                }
            }
        }
    }
    JOINT LeftHip
    {
        OFFSET   9.782990   0.000000   0.000000
        CHANNELS 3 Zrotation Xrotation Yrotation
        JOINT LeftKnee
        {
            OFFSET  -0.000063 -41.789100   0.001657
            CHANNELS 3 Zrotation Xrotation Yrotation
            JOINT LeftAnkle
            {
                OFFSET   0.000078 -41.133200  -0.000113
                CHANNELS 3 Zrotation Xrotation Yrotation
                JOINT LeftToe
                {
                    OFFSET   0.000000  -6.358970  14.674500
                    CHANNELS 3 Zrotation Xrotation Yrotation
                    End Site
                    {
                        OFFSET   0.000000   0.000000   3.913200
                    }
                }
            }
        }
    }
    JOINT RightHip
    {
        OFFSET  -9.782990   0.000000   0.000000
        CHANNELS 3 Zrotation Xrotation Yrotation
        JOINT RightKnee
        {
            OFFSET   0.000053 -41.789200   0.000277
            CHANNELS 3 Zrotation Xrotation Yrotation
            JOINT RightAnkle
            {
                OFFSET   0.000030 -41.133200  -0.000150
                CHANNELS 3 Zrotation Xrotation Yrotation
                JOINT RightToe
                {
                    OFFSET   0.000000  -6.358960  14.674500
                    CHANNELS 3 Zrotation Xrotation Yrotation
                    End Site
                    {
                        OFFSET   0.000000   0.000000   3.913200
                    }
                }
            }
        }
    }
}
MOTION
Frames: 4
Frame Time:   0.016667
 -0.194680  89.633300  -0.978640  -1.797800  -5.165050  -1.044640   0.626320   4.012970  -0.295300   1.278150   8.022430  -0.637029  -0.325874  -1.355010  -0.011177  -0.545105  -2.747860   0.610560  -6.501100  -2.106200   2.365400 -74.978500  14.929600  -0.220302  -1.681040  -5.017090 -17.175400  14.339600  -2.593670   2.137650  37.376200  30.929500 -56.574000 -34.219700   0.000000   0.000000 -12.109900   0.000000  -0.000835 -23.607900   3.786670  -8.592780 -19.548400  -0.000899   0.003153 -13.683900  -0.000583   0.003301 -28.394100   4.494270  -8.246720 -39.534200  -0.002915  -0.000154 -26.329700  -0.003023  -0.001612 -28.240200   3.360210  -6.222910 -35.289600  -0.002342  -0.001108 -23.502900  -0.004098  -0.002562 -33.566900   0.553473  -0.842186 -50.356400  -0.000740   0.004518 -33.537400  -0.000115   0.000136  10.737300   0.897505   9.286120  70.128800   2.413690  -4.352850  -0.003628 -10.181100  10.928100 -15.527000   1.708560   1.935130 -34.189700  24.153800  52.822100  35.015200  -0.005932  -0.001694  12.515400   0.015232  -0.001134  28.801100   6.849490  12.239300  24.166100   0.001571  -0.007797  16.925500  -0.000600  -0.005808  28.465800   4.992380   9.116280  43.287100  -0.004279   0.003890  28.835600  -0.003164   0.004052  28.560800   3.890470   7.108770  42.550700  -0.003008   0.003780  28.338800  -0.003407   0.004296  36.913800  -0.228073  -0.315198  55.371600   0.002795   0.007615  36.877500  -0.001423   0.007964   1.520070   6.657420   2.974420   0.934359   0.099604   5.537650  -1.307270  -2.595550   2.098270  -0.000000   0.000000  -0.000000   2.298510   4.897590   1.273530  -0.018645   3.022930  -7.308160  -1.182510  -4.217950  -1.911980  -0.000000   0.000000   0.000000
 -0.194398  89.633300  -0.986879  -1.798630  -5.174930  -1.051760   0.626379   4.019250  -0.293915   1.278210   8.034980  -0.634331  -0.327640  -1.354030  -0.011171  -0.546262  -2.745570   0.620990  -6.501110  -2.111460   2.359430 -74.964900  14.945000  -0.238177  -1.674080  -5.016360 -17.189400  14.349300  -2.603300   2.137660  37.371600  30.940800 -56.575400 -34.238800   0.000000   0.000037 -12.119500   0.000000  -0.000866 -23.622900   3.782340  -8.577100 -19.559900  -0.000908   0.003150 -13.692000  -0.000586   0.003295 -28.396300   4.486860  -8.232410 -39.573400  -0.002914  -0.000155 -26.355800  -0.003018  -0.001611 -28.240200   3.360300  -6.222880 -35.309100  -0.002336  -0.001105 -23.515900  -0.004095  -0.002560 -33.571800   0.553620  -0.840951 -50.363700  -0.000735   0.004518 -33.542300  -0.000113   0.000139  10.734900   0.885722   9.292710  70.120100   2.430250  -4.351460  -0.003790 -10.180800  10.927400 -15.544700   1.701640   1.932400 -34.186700  24.147200  52.800000  35.021400  -0.005933  -0.001698  12.515400   0.015238  -0.001136  28.808200   6.843300  12.226500  24.170700   0.001570  -0.007803  16.925500  -0.000601  -0.005809  28.465800   4.992360   9.116210  43.291000  -0.004277   0.003887  28.835600  -0.003168   0.004050  28.560800   3.890460   7.108770  42.572600  -0.003007   0.003777  28.353400  -0.003411   0.004293  36.929800  -0.228141  -0.315197  55.395700   0.002795   0.007610  36.893600  -0.001427   0.007963   1.520000   6.656960   2.974590   0.934328   0.109938   5.537040  -1.307260  -2.600410   2.111210  -0.000000   0.000000  -0.000000   2.304240   4.898350   1.271990  -0.025340   3.024400  -7.304290  -1.182570  -4.217930  -1.911980   0.000000   0.000000   0.000000
 -0.194116  89.633300  -1.000570  -1.800160  -5.192430  -1.065180   0.626482   4.029660  -0.291009   1.278290   8.055830  -0.628636  -0.331775  -1.350830  -0.011166  -0.550233  -2.738730   0.638283  -6.501120  -2.120600   2.349840 -74.944200  14.974200  -0.266782  -1.662480  -5.015440 -17.210500  14.359100  -2.617850   2.137670  37.364600  30.955400 -56.572100 -34.265700   0.000000   0.000074 -12.132900   0.000000  -0.000898 -23.646900   3.776290  -8.553970 -19.578600  -0.000928   0.003139 -13.705000  -0.000596   0.003282 -28.399600   4.476030  -8.211410 -39.634800  -0.002910  -0.000156 -26.396800  -0.003005  -0.001608 -28.240200   3.360500  -6.222840 -35.343900  -0.002322  -0.001097 -23.539000  -0.004085  -0.002553 -33.581700   0.553767  -0.838038 -50.378600  -0.000720   0.004517 -33.552200  -0.000100   0.000150  10.730200   0.866544   9.302750  70.105700   2.456140  -4.347540  -0.004507 -10.180600  10.923600 -15.569100   1.688910   1.926250 -34.181900  24.136900  52.768800  35.030800  -0.005940  -0.001704  12.515400   0.015248  -0.001138  28.820400   6.837240  12.208700  24.179300   0.001563  -0.007813  16.925500  -0.000602  -0.005810  28.465800   4.992300   9.116070  43.296700  -0.004274   0.003876  28.835600  -0.003176   0.004042  28.560800   3.890450   7.108770  42.604600  -0.003003   0.003765  28.374700  -0.003418   0.004285  36.945900  -0.228266  -0.315197  55.419800   0.002797   0.007595  36.909600  -0.001438   0.007959   1.519780   6.656500   2.974760   0.934298   0.120271   5.536440  -1.306920  -2.605250   2.131100   0.000000   0.000000  -0.000000   2.318770   4.901320   1.270440  -0.040831   3.028330  -7.300440  -1.182640  -4.217810  -1.911990   0.000000   0.000000  -0.000000
 -0.195495  89.633200  -1.011460  -1.804330  -5.209060  -1.079800   0.626581   4.037590  -0.287164   1.278270   8.071720  -0.621023  -0.337998  -1.344110  -0.011174  -0.558146  -2.725060   0.651468  -6.501940  -2.128750   2.342420 -74.932800  15.004300  -0.286383  -1.653590  -5.016130 -17.221700  14.358000  -2.625690   2.141510  37.358400  30.949500 -56.548800 -34.275000   0.000000   0.000037 -12.137600   0.000000  -0.000877 -23.664500   3.774260  -8.542460 -19.592600  -0.000957   0.003118 -13.714800  -0.000617   0.003265 -28.401100   4.470890  -8.201280 -39.677100  -0.002907  -0.000159 -26.425000  -0.002983  -0.001599 -28.240400   3.360770  -6.222780 -35.379300  -0.002303  -0.001090 -23.562600  -0.004068  -0.002537 -33.594700   0.552532  -0.833501 -50.397900  -0.000697   0.004517 -33.565000  -0.000044   0.000168  10.725100   0.852597   9.307890  70.094300   2.472030  -4.341090  -0.008113 -10.182700  10.914400 -15.577000   1.675720   1.915330 -34.177400  24.128900  52.754400  35.035700  -0.005957  -0.001707  12.517400   0.015252  -0.001138  28.832600   6.837480  12.201400  24.189000   0.001541  -0.007825  16.930900  -0.000603  -0.005818  28.466600   4.992210   9.115890  43.299500  -0.004272   0.003856  28.836300  -0.003186   0.004028  28.560800   3.890430   7.108700  42.621400  -0.002992   0.003744  28.385900  -0.003428   0.004274  36.945700  -0.228430  -0.315024  55.419400   0.002799   0.007571  36.909300  -0.001454   0.007953   1.518470   6.671630   2.974850   0.934123   0.099795   5.539830  -1.304810  -2.587460   2.144030  -0.000000   0.000000   0.000000   2.340930   4.906750   1.281920  -0.062833   3.036680  -7.306180  -1.182270  -4.215840  -1.907280   0.000000   0.000000   0.000000
